<svg xmlns="http://www.w3.org/2000/svg" width="128" height="128" fill="none" viewBox="0 0 128 128"><g clip-path="url(#a)"><path fill="#f0b90b" d="M128 64c0-35.346-28.654-64-64-64S0 28.654 0 64s28.654 64 64 64 64-28.654 64-64"/><path fill="#fff" d="m35.374 63.749.046 16.923 14.38 8.461v9.908l-22.795-13.37V58.8zm0-16.923v9.861L27 51.733v-9.861l8.374-4.954 8.416 4.954zm20.431-4.954 8.375-4.954 8.415 4.954-8.415 4.954z"/><path fill="#fff" d="M41.426 77.164v-9.908L49.8 72.21v9.862zm14.38 15.518 8.374 4.954 8.415-4.954v9.862l-8.415 4.953-8.375-4.953zm28.8-50.81 8.374-4.954 8.415 4.954v9.861l-8.415 4.954v-9.861zm8.374 38.8.046-16.923 8.374-4.954v26.872L78.605 99.036v-9.908z"/><path fill="#fff" d="m86.976 77.166-8.374 4.907v-9.861l8.374-4.954z"/><path fill="#fff" d="m86.975 50.333.046 9.908-14.42 8.462v16.964l-8.375 4.907-8.375-4.907V68.703l-14.42-8.462v-9.908l8.41-4.953 14.333 8.502 14.421-8.502 8.415 4.953zm-45.55-16.918L64.18 20l22.795 13.415L78.6 38.37l-14.42-8.502L49.8 38.37z"/></g><defs><clipPath id="a"><path fill="#fff" d="M0 0h128v128H0z"/></clipPath></defs></svg>